<svg width="29" height="23" viewBox="0 0 29 23" fill="none" xmlns="http://www.w3.org/2000/svg">
<g clip-path="url(#clip0_818_732)">
<path d="M0.0666504 20.3515C2.54941 22.0242 5.58389 23 8.89424 23C19.5149 23 25.5839 13.9394 25.1701 5.71515C26.2735 4.87879 27.2391 3.90303 28.0667 2.78788C27.1011 3.20606 25.9977 3.62424 24.7563 3.76364C25.9977 3.06667 26.8253 1.95152 27.2391 0.557576C26.1356 1.25455 24.8942 1.67273 23.6529 1.95152C22.5494 0.69697 21.0322 0 19.377 0C15.7908 0 13.0322 3.48485 13.8598 7.10909C9.03217 6.8303 4.89424 4.6 1.99768 1.11515C0.480443 3.62424 1.1701 7.10909 3.79079 8.78182C2.82527 8.78182 1.99768 8.50303 1.1701 8.08485C1.1701 10.7333 2.9632 13.2424 5.72182 13.8C4.89424 14.0788 4.06665 14.0788 3.10113 13.9394C3.79079 16.3091 5.99768 17.9818 8.48044 17.9818C6.13562 19.9333 3.10113 20.7697 0.0666504 20.3515Z" fill="#00C1C9"/>
</g>
<defs>
<clipPath id="clip0_818_732">
<rect width="28" height="23" fill="white" transform="translate(0.0666504)"/>
</clipPath>
</defs>
</svg>
