<svg width="27" height="23" viewBox="0 0 27 23" fill="none" xmlns="http://www.w3.org/2000/svg">
<g clip-path="url(#clip0_818_752)">
<path fill-rule="evenodd" clip-rule="evenodd" d="M17.5163 15.1398C17.0312 15.1414 16.5649 14.9483 16.2178 14.6021C15.8706 14.2558 15.6703 13.784 15.66 13.2883C15.6673 12.789 15.8658 12.3125 16.2128 11.961C16.5598 11.6095 17.0277 11.411 17.5163 11.4081C18.0017 11.4126 18.4658 11.6125 18.808 11.9645C19.1502 12.3165 19.3429 12.7921 19.3444 13.2883C19.3414 13.7814 19.1473 14.2532 18.8046 14.6003C18.4619 14.9473 17.9986 15.1414 17.5163 15.1398ZM17.9438 18.7278C17.0044 19.6823 15.5531 20.1251 13.5 20.1251C11.4581 20.1251 10.0125 19.6651 9.07312 18.7106C9.00544 18.6421 8.9517 18.5606 8.91503 18.4708C8.87835 18.381 8.85947 18.2847 8.85947 18.1873C8.85947 18.09 8.87835 17.9936 8.91503 17.9038C8.9517 17.814 9.00544 17.7325 9.07312 17.6641C9.21126 17.5233 9.39837 17.4442 9.59344 17.4442C9.78851 17.4442 9.97562 17.5233 10.1137 17.6641C10.7606 18.3196 11.8687 18.6358 13.4887 18.6358H13.5C15.1313 18.6358 16.2394 18.3196 16.875 17.6641C17.0131 17.5233 17.2002 17.4442 17.3953 17.4442C17.5904 17.4442 17.7775 17.5233 17.9156 17.6641C17.9835 17.733 18.0373 17.815 18.0741 17.9053C18.1108 17.9956 18.1298 18.0924 18.1298 18.1902C18.1298 18.288 18.1108 18.3848 18.0741 18.4751C18.0373 18.5654 17.9835 18.6474 17.9156 18.7163L17.9438 18.7278ZM7.65562 13.2883C7.66297 12.789 7.86143 12.3125 8.20844 11.961C8.55544 11.6095 9.02337 11.411 9.51188 11.4081C9.9973 11.4126 10.4614 11.6125 10.8036 11.9645C11.1458 12.3165 11.3385 12.7921 11.34 13.2883C11.337 13.7814 11.1429 14.2532 10.8002 14.6003C10.4576 14.9473 9.99426 15.1414 9.51188 15.1398C9.0264 15.1429 8.55929 14.9503 8.21181 14.6037C7.86433 14.2571 7.6645 13.7845 7.65562 13.2883ZM22.5 1.49508C22.7418 1.49848 22.9772 1.57488 23.1766 1.71466C23.376 1.85445 23.5306 2.05139 23.6208 2.28072C23.711 2.51004 23.7329 2.76152 23.6837 3.00353C23.6345 3.24553 23.5164 3.46727 23.3443 3.64085C23.1721 3.81444 22.9536 3.93212 22.7162 3.9791C22.4788 4.02609 22.2331 4.00028 22.01 3.90492C21.787 3.80956 21.5964 3.64891 21.4624 3.44316C21.3284 3.23741 21.2569 2.99576 21.2569 2.74858C21.2598 2.41408 21.3923 2.0944 21.6253 1.85948C21.8583 1.62457 22.1728 1.49354 22.5 1.49508ZM27 11.2701C26.9942 10.6462 26.8164 10.0367 26.4871 9.5114C26.1578 8.98614 25.6902 8.56643 25.1382 8.30046C24.5861 8.0345 23.9718 7.93305 23.3659 8.00775C22.7599 8.08246 22.1869 8.3303 21.7125 8.72283C19.53 7.40325 17.0627 6.65469 14.5294 6.54358L15.9356 2.04708L19.7944 2.96708C19.8394 3.68746 20.1576 4.36147 20.6813 4.84571C21.205 5.32995 21.8929 5.58622 22.5986 5.56C23.3043 5.53378 23.9721 5.22715 24.4601 4.70532C24.948 4.18349 25.2175 3.48766 25.2113 2.76583C25.2065 2.14642 24.9992 1.54642 24.6225 1.06123C24.2458 0.576041 23.7213 0.233513 23.1322 0.0881047C22.5432 -0.0573033 21.9235 0.00275607 21.3717 0.258734C20.8199 0.514712 20.3677 0.951913 20.0869 1.50083L15.5869 0.431327C15.4066 0.387382 15.2168 0.414461 15.0552 0.50717C14.8937 0.599878 14.7722 0.751411 14.715 0.931577L12.9712 6.51483C10.2559 6.53227 7.59191 7.2735 5.2425 8.66533C4.76499 8.28434 4.19271 8.04755 3.5904 7.98176C2.98809 7.91596 2.37979 8.02377 1.8343 8.293C1.28882 8.56223 0.827923 8.98214 0.503758 9.50521C0.179592 10.0283 0.00509273 10.6336 0 11.2528C0.000586453 11.7864 0.129073 12.3118 0.374221 12.7829C0.619368 13.254 0.97371 13.6566 1.40625 13.9553C1.36774 14.218 1.34894 14.4832 1.35 14.7488C1.35 17.0143 2.64937 19.1188 5.01188 20.6828C7.55488 22.25 10.4807 23.0476 13.4494 22.9828C16.418 23.0466 19.3435 22.2491 21.8869 20.6828C24.2437 19.1188 25.5431 17.0143 25.5431 14.7488C25.545 14.5065 25.5299 14.2644 25.4981 14.0243C25.958 13.7306 26.3371 13.3221 26.5998 12.8372C26.8626 12.3523 27.0003 11.8071 27 11.2528" fill="#00C1C9"/>
</g>
<defs>
<clipPath id="clip0_818_752">
<rect width="27" height="23" fill="white"/>
</clipPath>
</defs>
</svg>
