<svg width="34" height="23" viewBox="0 0 34 23" fill="none" xmlns="http://www.w3.org/2000/svg">
<g clip-path="url(#clip0_818_744)">
<path d="M33.1093 3.63721C32.7847 2.13954 31.5946 1.06977 30.188 0.64186C27.6995 0 17.3126 0 17.3126 0C17.3126 0 7.03391 0 4.43719 0.64186C3.03063 1.06977 1.94867 2.13954 1.51588 3.63721C0.866699 6.09767 0.866699 11.4465 0.866699 11.4465C0.866699 11.4465 0.866699 16.7953 1.51588 19.3628C1.94867 20.7535 3.03063 21.9302 4.43719 22.2512C7.03391 22.893 17.3126 22.893 17.3126 22.893C17.3126 22.893 27.5913 22.893 30.188 22.2512C31.5946 21.8233 32.6765 20.7535 33.1093 19.3628C33.7585 16.7953 33.7585 11.4465 33.7585 11.4465C33.7585 11.4465 33.8667 6.09767 33.1093 3.63721ZM13.9585 16.3674V6.63256L22.6142 11.4465L13.9585 16.3674Z" fill="#00C1C9"/>
</g>
<defs>
<clipPath id="clip0_818_744">
<rect width="33" height="23" fill="white" transform="translate(0.866699)"/>
</clipPath>
</defs>
</svg>
