<svg width="20" height="23" viewBox="0 0 20 23" fill="none" xmlns="http://www.w3.org/2000/svg">
<path d="M18.7967 4.27143C18.7119 4.15077 18.6176 4.03723 18.5148 3.9319C18.622 3.66418 18.6984 3.38487 18.7424 3.09951C18.8942 2.06145 18.7632 1.00123 18.3632 0.0328603C18.3632 0.0328603 17.1491 -0.350468 14.3632 1.54429C13.1802 1.2157 11.9586 1.04991 10.7317 1.05142C9.50131 1.05144 8.27631 1.2172 7.08929 1.54429C4.30338 -0.372372 3.08935 0.0328603 3.08935 0.0328603C2.69984 0.992509 2.56909 2.03925 2.71011 3.06662C2.76653 3.36103 2.84625 3.65041 2.94856 3.9319L2.66671 4.27143C1.86181 5.2988 1.43279 6.57556 1.45249 7.8857C1.45249 8.20332 1.45249 8.50996 1.45249 8.81662C1.79937 13.6685 4.99729 14.7967 8.04336 15.1471C7.61865 15.5572 7.32751 16.0882 7.20865 16.6695C7.11309 17.0601 7.06562 17.461 7.06759 17.8633V19.309C5.86434 19.4185 4.61786 19.2433 4.22762 18.1481C3.81913 17.1007 3.13265 16.1874 2.24379 15.5086L2.0596 15.3881C1.98273 15.1802 1.84503 15.0008 1.665 14.8737C1.48497 14.7465 1.27118 14.6777 1.05154 14.6762C0.764043 14.6762 0.488137 14.7915 0.284846 14.9969C0.0815545 15.2023 -0.0324707 15.4809 -0.0324707 15.7714C0.015953 16.1338 0.156173 16.4775 0.374563 16.7691C0.592953 17.0608 0.882014 17.2905 1.21404 17.4361C1.63683 17.8644 1.97518 18.3699 2.21124 18.9257C2.60149 20.021 3.7616 21.7514 7.04615 21.5214C7.05093 21.5578 7.05093 21.5946 7.04615 21.6309V21.9267C7.04615 22.2171 7.16018 22.4957 7.36347 22.7011C7.56676 22.9065 7.84267 23.0219 8.13016 23.0219H13.2467C13.5342 23.0219 13.8098 22.9065 14.0131 22.7011C14.2164 22.4957 14.3307 22.2171 14.3307 21.9267V17.8852C14.3434 17.4824 14.2957 17.0799 14.1896 16.6914C14.193 16.655 14.193 16.6183 14.1896 16.5819C14.0671 16.0409 13.7878 15.549 13.3875 15.169C16.4335 14.8185 19.6097 13.6685 19.9566 8.83855C19.9784 8.52862 19.9784 8.21755 19.9566 7.90762C19.9959 6.59678 19.5861 5.31241 18.7967 4.27143Z" fill="#00C1C9"/>
</svg>
