<svg width="24" height="23" viewBox="0 0 24 23" fill="none" xmlns="http://www.w3.org/2000/svg">
<path d="M5.33848 7.70679H0.617432V23H5.33848V7.70679Z" fill="#00C1C9"/>
<path d="M2.91751 5.65969C4.4912 5.65969 5.70172 4.33508 5.70172 2.89005C5.70172 1.44503 4.4912 0 2.91751 0C1.34383 0 0.133301 1.32461 0.133301 2.76963C0.133301 4.21466 1.34383 5.65969 2.91751 5.65969Z" fill="#00C1C9"/>
<path d="M12.965 14.932C12.965 12.7644 13.9334 11.4398 15.8703 11.4398C17.565 11.4398 18.4124 12.644 18.4124 14.932C18.4124 17.0995 18.4124 23 18.4124 23H23.1334C23.1334 23 23.1334 17.4608 23.1334 13.2461C23.1334 9.15186 20.8334 7.10474 17.565 7.10474C14.2966 7.10474 12.965 9.63353 12.965 9.63353V7.70683H8.36499V23H12.965C12.965 23 12.965 17.3403 12.965 14.932Z" fill="#00C1C9"/>
</svg>
