<svg width="25" height="23" viewBox="0 0 25 23" fill="none" xmlns="http://www.w3.org/2000/svg">
<g clip-path="url(#clip0_818_746)">
<path d="M12.8759 2.09091C16.0912 2.09091 16.4357 2.09091 17.6989 2.20096C18.8472 2.20096 19.5362 2.42105 19.8807 2.64115C20.4549 2.86124 20.7994 3.08134 21.2587 3.52153C21.718 3.96172 21.9477 4.29187 22.1774 4.84211C22.2922 5.2823 22.5219 5.83254 22.6367 6.93301C22.6367 8.14354 22.7515 8.47368 22.7515 11.555C22.7515 14.6364 22.7515 14.9665 22.6367 16.177C22.6367 17.2775 22.407 17.9378 22.1774 18.2679C21.9477 18.8182 21.718 19.1483 21.2587 19.5885C20.7994 20.0287 20.4549 20.2488 19.8807 20.4689C19.4214 20.5789 18.8472 20.799 17.6989 20.9091C16.5506 20.9091 16.0912 20.9091 12.8759 20.9091C9.66062 20.9091 9.31612 20.9091 8.05297 20.799C6.90464 20.799 6.21565 20.5789 5.87115 20.3589C5.29699 20.1388 4.95249 19.9187 4.49316 19.4785C4.03383 19.0383 3.80416 18.7081 3.5745 18.1579C3.45967 17.7177 3.23 17.1675 3.11517 16.067C3.00034 14.8565 3.00034 14.5263 3.00034 11.445C3.00034 8.36364 3.00034 8.03349 3.11517 6.82297C3.11517 5.72249 3.34483 5.0622 3.5745 4.73206C3.80416 4.18182 4.03383 3.85167 4.49316 3.41148C4.95249 2.97129 5.29699 2.7512 5.87115 2.5311C6.21565 2.42105 6.90464 2.20096 8.05297 2.09091C9.31612 2.09091 9.66062 2.09091 12.8759 2.09091ZM12.8759 0C9.66062 0 9.20129 0 7.93813 0.110048C6.67498 0.110048 5.87115 0.330144 5.06732 0.550239C4.26349 0.880383 3.5745 1.32057 3.00034 1.98086C2.31134 2.5311 1.85201 3.19139 1.50751 3.96172C1.27785 4.73206 1.04818 5.50239 1.04818 6.71292C0.93335 7.92345 0.93335 8.36364 0.93335 11.445C0.93335 14.5263 0.93335 14.9665 1.04818 16.177C1.16301 17.3876 1.27785 18.2679 1.62234 18.9282C1.96684 19.6986 2.31134 20.3589 3.00034 20.9091C3.68933 21.5694 4.37833 21.8995 5.06732 22.2297C5.87115 22.5598 6.67498 22.6699 7.93813 22.7799C9.20129 22.89 9.66062 22.89 12.8759 22.89C16.0912 22.89 16.5506 22.89 17.8137 22.7799C19.0769 22.6699 19.9956 22.5598 20.6845 22.2297C21.4884 21.8995 22.1774 21.5694 22.7515 20.9091C23.4405 20.2488 23.785 19.5885 24.1295 18.9282C24.474 18.1579 24.5889 17.3876 24.7037 16.177C24.8185 14.9665 24.8185 14.5263 24.8185 11.445C24.8185 8.36364 24.8185 7.92345 24.7037 6.71292C24.5889 5.50239 24.474 4.62201 24.1295 3.96172C23.785 3.19139 23.4405 2.5311 22.7515 1.98086C22.0625 1.32057 21.3735 0.990431 20.6845 0.660287C19.8807 0.330144 19.0769 0.220096 17.8137 0.110048C16.5506 0 16.2061 0 12.8759 0Z" fill="#00C1C9"/>
<path d="M12.876 5.61267C9.43103 5.61267 6.67505 8.25399 6.67505 11.5556C6.67505 14.8573 9.43103 17.4986 12.876 17.4986C16.321 17.4986 19.077 14.8573 19.077 11.5556C19.077 8.25399 16.321 5.61267 12.876 5.61267ZM12.876 15.2975C10.6942 15.2975 8.85687 13.5366 8.85687 11.4456C8.9717 9.35454 10.6942 7.70372 12.876 7.70372C15.0578 7.70372 16.8952 9.4646 16.8952 11.5556C16.8952 13.6467 15.1727 15.2975 12.876 15.2975Z" fill="#00C1C9"/>
<path d="M20.7996 5.39254C20.7996 6.16287 20.1106 6.82316 19.3068 6.82316C18.503 6.82316 17.814 6.16287 17.814 5.39254C17.814 4.6222 18.503 3.96191 19.3068 3.96191C20.1106 3.96191 20.7996 4.6222 20.7996 5.39254Z" fill="#00C1C9"/>
</g>
<defs>
<clipPath id="clip0_818_746">
<rect width="24" height="23" fill="white" transform="translate(0.93335)"/>
</clipPath>
</defs>
</svg>
